<svg width="20" height="20" fill="none" xmlns="http://www.w3.org/2000/svg"><path d="M13.2 18.542H6.8a2.542 2.542 0 0 1-2.5-2.384L3.542 4.626a.633.633 0 0 1 .374-.61.641.641 0 0 1 .25-.056h11.667a.625.625 0 0 1 .625.666l-.725 11.534a2.542 2.542 0 0 1-2.533 2.383ZM4.867 5.208l.641 10.876A1.292 1.292 0 0 0 6.8 17.291h6.4a1.3 1.3 0 0 0 1.292-1.209l.675-10.833-10.3-.042Z" fill="#EA2B2B"/><path d="M17.5 5.208h-15a.625.625 0 0 1 0-1.25h15a.625.625 0 1 1 0 1.25Z" fill="#EA2B2B"/><path d="M12.5 5.208h-5a.633.633 0 0 1-.625-.625v-1.5A1.667 1.667 0 0 1 8.5 1.458h3a1.667 1.667 0 0 1 1.625 1.667v1.458a.634.634 0 0 1-.625.625Zm-4.375-1.25h3.75v-.833a.375.375 0 0 0-.375-.375h-3a.375.375 0 0 0-.375.375v.833ZM12.5 15.209a.634.634 0 0 1-.625-.625V7.917a.625.625 0 1 1 1.25 0v6.667a.634.634 0 0 1-.625.625Zm-5 0a.633.633 0 0 1-.625-.625V7.917a.625.625 0 0 1 1.25 0v6.667a.633.633 0 0 1-.625.625Zm2.5 0a.633.633 0 0 1-.625-.625V7.917a.625.625 0 0 1 1.25 0v6.667a.634.634 0 0 1-.625.625Z" fill="#EA2B2B"/></svg>