<svg width="12" height="12" fill="none" xmlns="http://www.w3.org/2000/svg"><path d="M2.484 0h1.407v2.133H2.484V0ZM8.11 0h1.406v2.133H8.109V0ZM0 12h12V4.945H0V12Zm8.46-6.352h1.407v.704H8.461v-.704Zm0 2.11h1.407v.703H8.461v-.703Zm0 2.11h1.407v.702H8.461v-.703Zm-3.163-4.22h1.406v.704H5.297v-.704Zm0 2.11h1.406v.703H5.297v-.703Zm0 2.11h1.406v.702H5.297v-.703Zm-3.164-4.22h1.406v.704H2.133v-.704Zm0 2.11h1.406v.703H2.133v-.703Zm0 2.11h1.406v.702H2.133v-.703Z" fill="#fff"/><path d="M10.219 1.43v1.406H7.406V1.43H4.594v1.406H1.78V1.43H0v2.812h12V1.43h-1.781Z" fill="#fff"/></svg>