<svg width="16" height="16" fill="none" xmlns="http://www.w3.org/2000/svg"><circle cx="8" cy="8" r="8" fill="#ED2222"/><g clip-path="url(#a)" fill="#fff"><path d="M4.758 11.95a.758.758 0 0 1-.538-.182.758.758 0 0 1 0-1.069l6.434-6.433a.758.758 0 0 1 1.106 1.03l-6.47 6.473a.758.758 0 0 1-.53.182Z"/><path d="M11.184 11.95a.758.758 0 0 1-.53-.22L4.22 5.297a.758.758 0 0 1 1.07-1.069l6.471 6.434a.758.758 0 0 1 0 1.106.758.758 0 0 1-.576.182Z"/></g><defs><clipPath id="a"><path fill="#fff" transform="translate(4 4)" d="M0 0h8v8H0z"/></clipPath></defs></svg>