<svg width="20" height="20" fill="none" xmlns="http://www.w3.org/2000/svg"><path d="M16.553 18.75H6.592a2.2 2.2 0 0 1-2.197-2.197V6.592a2.2 2.2 0 0 1 2.197-2.197h9.96a2.2 2.2 0 0 1 2.198 2.197v9.96a2.2 2.2 0 0 1-2.197 2.198ZM6.592 5.86a.733.733 0 0 0-.733.732v9.96c0 .405.329.733.733.733h9.96a.733.733 0 0 0 .733-.732V6.592a.733.733 0 0 0-.732-.733H6.592ZM2.93 12.89h-.733a.733.733 0 0 1-.732-.732v-9.96c0-.405.328-.733.732-.733h9.961c.404 0 .733.328.733.732v.696h1.464v-.696A2.2 2.2 0 0 0 12.159 0h-9.96A2.2 2.2 0 0 0 0 2.197v9.961a2.2 2.2 0 0 0 2.197 2.197h.733v-1.464Z" fill="#A1A1A1"/></svg>