<svg width="26" height="34" fill="none" xmlns="http://www.w3.org/2000/svg"><path d="M.25 2.04A2.04 2.04 0 0 1 2.29 0h14.96l8.5 7.14v24.82A2.04 2.04 0 0 1 23.71 34H2.29a2.04 2.04 0 0 1-2.04-2.04V2.04Z" fill="#42A5F5"/><path d="M17.25 0v5.1a2.04 2.04 0 0 0 2.04 2.04h6.46" fill="#1E88E5"/><path d="M5.978 24.002H3.979v-7.365H5.85c1.892 0 3.699.606 3.699 3.646 0 2.995-1.733 3.719-3.571 3.719Zm.127-6.09h-.361v4.815h.361c.967 0 1.615-.52 1.615-2.445 0-1.965-.69-2.37-1.615-2.37Zm6.896 6.271c-1.934 0-2.955-1.477-2.955-3.868 0-2.338 1.02-3.869 2.955-3.869 1.934 0 2.955 1.478 2.955 3.87 0 2.336-1.02 3.867-2.955 3.867Zm0-6.451c-.818 0-1.147.776-1.147 2.582 0 1.806.34 2.582 1.147 2.582.84 0 1.148-.797 1.148-2.582 0-1.806-.33-2.582-1.148-2.582Zm8.5.553c-.404-.33-.829-.532-1.392-.532-1.009 0-1.732.755-1.732 2.55 0 1.765.68 2.519 1.69 2.519.722 0 1.18-.298 1.594-.616l.797 1.02c-.542.52-1.34.957-2.508.957-2.03 0-3.412-1.35-3.412-3.88 0-2.466 1.478-3.858 3.444-3.858 1.062 0 1.763.32 2.38.819l-.86 1.02Z" fill="#fff"/></svg>