<svg width="14" height="14" fill="none" xmlns="http://www.w3.org/2000/svg"><path d="M6.875 7.5a.625.625 0 1 0 0-1.25.625.625 0 0 0 0 1.25ZM10 7.5a.625.625 0 1 0 0-1.25.625.625 0 0 0 0 1.25Zm-6.25 0a.625.625 0 1 0 0-1.25.625.625 0 0 0 0 1.25Z" fill="#9296A0"/><path d="M6.875 0A6.868 6.868 0 0 0 .964 10.377l-.334 2.67a.625.625 0 0 0 .772.684l2.55-.637a6.787 6.787 0 0 0 2.923.656 6.875 6.875 0 1 0 0-13.75Zm0 12.5a5.558 5.558 0 0 1-2.566-.624.625.625 0 0 0-.438-.05l-1.887.471.247-1.984a.623.623 0 0 0-.093-.414A5.621 5.621 0 1 1 6.875 12.5Z" fill="#9296A0"/></svg>