<svg width="16" height="16" fill="none" xmlns="http://www.w3.org/2000/svg"><path d="M1.922 8.738A6.33 6.33 0 0 1 1.875 8c0-3.356 2.769-6.125 6.125-6.125 1.566 0 3.031.631 4.11 1.616l-.541.55a.477.477 0 0 0-.122.468.49.49 0 0 0 .356.32c.095.018 3.194 1.017 2.997.977.251.084.622-.184.553-.553l-.665-3.34a.47.47 0 0 0-.329-.357.468.468 0 0 0-.459.122l-.46.45A7.995 7.995 0 0 0 8 0C3.603 0 0 3.603 0 8v.019c0 .264.012.468.026.624a.469.469 0 0 0 .375.418l.963.192a.47.47 0 0 0 .558-.515Zm13.679-1.799-.966-.197a.47.47 0 0 0-.559.516c.034.274.049.54.049.743 0 3.356-2.769 6.125-6.125 6.125-1.566 0-3.031-.632-4.11-1.625l.541-.541a.48.48 0 0 0 .122-.469.49.49 0 0 0-.356-.319c-.095-.019-3.195-1.017-2.997-.978a.46.46 0 0 0-.422.131.467.467 0 0 0-.131.422l.665 3.31a.47.47 0 0 0 .328.356.45.45 0 0 0 .46-.122l.45-.45A8.027 8.027 0 0 0 8 16.001c4.397 0 8-3.604 8-8v-.029c0-.207-.008-.411-.025-.614a.469.469 0 0 0-.374-.42Z" fill="#5465DB"/></svg>