<svg width="24" height="24" viewBox="0 0 24 24" fill="none" xmlns="http://www.w3.org/2000/svg">
<path d="M14.0036 1.99658L17.0036 4.99658L16.999 4.99958L17 5.00013V13.0001H16V5.99958L13 6.00013V2.99958H4V17.9996L12.0275 18.0004C12.0093 17.8362 12 17.6692 12 17.5001C12 15.0148 14.0147 13.0001 16.5 13.0001C18.9853 13.0001 21 15.0148 21 17.5001C21 19.9854 18.9853 22.0001 16.5 22.0001C14.5409 22.0001 12.8742 20.7482 12.2563 19.0008L3 19.0001V2.00013H14L14.0036 1.99658ZM16.5 14.0001C14.567 14.0001 13 15.5671 13 17.5001C13 19.4331 14.567 21.0001 16.5 21.0001C18.433 21.0001 20 19.4331 20 17.5001C20 15.5671 18.433 14.0001 16.5 14.0001ZM17 15.0001V16.9996L19 17.0001V18.0001L17 17.9996V20.0001H16V17.9996L14 18.0001V17.0001L16 16.9996V15.0001H17ZM11 14.0001V15.0001H6V14.0001H11ZM14 11.0001V12.0001H6V11.0001H14ZM14 8.00013V9.00013H6V8.00013H14ZM14 3.40758V4.99958H15.592L14 3.40758Z" fill="black"/>
</svg>
