<svg width="11" height="11" viewBox="0 0 11 11" fill="none" xmlns="http://www.w3.org/2000/svg">
<g clip-path="url(#clip0_116_853)">
<path d="M0.126027 5.80416C0.126156 5.80428 0.126264 5.80444 0.126414 5.80456L2.37162 8.03894C2.53982 8.20632 2.81188 8.2057 2.9793 8.03748C3.14671 7.86928 3.14606 7.59722 2.97786 7.42981L1.47043 5.92969L10.5703 5.92969C10.8076 5.92969 11 5.73732 11 5.5C11 5.26269 10.8076 5.07031 10.5703 5.07031L1.47046 5.07031L2.97784 3.57019C3.14604 3.40278 3.14669 3.13073 2.97928 2.96252C2.81185 2.79428 2.53977 2.7937 2.3716 2.96106L0.126392 5.19544C0.126264 5.19557 0.126156 5.19572 0.126005 5.19585C-0.0422812 5.36381 -0.0417442 5.63675 0.126027 5.80416Z" fill="white"/>
</g>
<defs>
<clipPath id="clip0_116_853">
<rect width="11" height="11" fill="white" transform="translate(11 11) rotate(-180)"/>
</clipPath>
</defs>
</svg>
