<svg width="19" height="19" viewBox="0 0 19 19" fill="none" xmlns="http://www.w3.org/2000/svg">
<rect width="19" height="19" rx="4" fill="#5971E9"/>
<g clip-path="url(#clip0_78_751)">
<path d="M14.874 9.19584C14.8738 9.19572 14.8737 9.19556 14.8736 9.19544L12.6284 6.96106C12.4602 6.79368 12.1881 6.7943 12.0207 6.96252C11.8533 7.13072 11.8539 7.40278 12.0221 7.57019L13.5296 9.07031H4.42969C4.19237 9.07031 4 9.26268 4 9.5C4 9.73731 4.19237 9.92969 4.42969 9.92969H13.5295L12.0222 11.4298C11.854 11.5972 11.8533 11.8693 12.0207 12.0375C12.1881 12.2057 12.4602 12.2063 12.6284 12.0389L14.8736 9.80456C14.8737 9.80443 14.8738 9.80428 14.874 9.80415C15.0423 9.63619 15.0417 9.36325 14.874 9.19584Z" fill="white"/>
</g>
<defs>
<clipPath id="clip0_78_751">
<rect width="11" height="11" fill="white" transform="translate(4 4)"/>
</clipPath>
</defs>
</svg>
