<svg width="20" height="20" viewBox="0 0 20 20" fill="none" xmlns="http://www.w3.org/2000/svg">
<path d="M13.2 18.5418H6.80003C6.15972 18.5326 5.54649 18.2819 5.08299 17.8401C4.61948 17.3982 4.33986 16.7976 4.30003 16.1585L3.5417 4.62516C3.53781 4.54154 3.55054 4.45798 3.57915 4.37931C3.60775 4.30064 3.65167 4.22842 3.70837 4.16683C3.76677 4.103 3.83748 4.05164 3.91625 4.01584C3.99501 3.98003 4.0802 3.96053 4.1667 3.9585H15.8334C15.9191 3.95831 16.0039 3.97574 16.0826 4.00973C16.1613 4.04371 16.2321 4.09351 16.2907 4.15603C16.3493 4.21856 16.3945 4.29247 16.4233 4.37317C16.4521 4.45388 16.4641 4.53965 16.4584 4.62516L15.7334 16.1585C15.6931 16.8033 15.4088 17.4087 14.9382 17.8514C14.4676 18.2941 13.8461 18.541 13.2 18.5418ZM4.8667 5.2085L5.50837 16.0835C5.52957 16.4114 5.67496 16.7189 5.91493 16.9434C6.15491 17.1679 6.47142 17.2925 6.80003 17.2918H13.2C13.5281 17.2905 13.8435 17.1653 14.083 16.9412C14.3226 16.7171 14.4686 16.4107 14.4917 16.0835L15.1667 5.25016L4.8667 5.2085Z" fill="#EA2B2B"/>
<path d="M17.5 5.2085H2.5C2.33424 5.2085 2.17527 5.14265 2.05806 5.02544C1.94085 4.90823 1.875 4.74926 1.875 4.5835C1.875 4.41774 1.94085 4.25876 2.05806 4.14155C2.17527 4.02434 2.33424 3.9585 2.5 3.9585H17.5C17.6658 3.9585 17.8247 4.02434 17.9419 4.14155C18.0591 4.25876 18.125 4.41774 18.125 4.5835C18.125 4.74926 18.0591 4.90823 17.9419 5.02544C17.8247 5.14265 17.6658 5.2085 17.5 5.2085Z" fill="#EA2B2B"/>
<path d="M12.5 5.2085H7.5C7.33491 5.20634 7.17719 5.1398 7.06045 5.02305C6.9437 4.90631 6.87716 4.74859 6.875 4.5835V3.0835C6.88556 2.65585 7.06016 2.24863 7.36265 1.94614C7.66513 1.64366 8.07235 1.46906 8.5 1.4585H11.5C11.9348 1.46937 12.3481 1.64975 12.6517 1.96114C12.9553 2.27253 13.1251 2.69026 13.125 3.12516V4.5835C13.1228 4.74859 13.0563 4.90631 12.9396 5.02305C12.8228 5.1398 12.6651 5.20634 12.5 5.2085ZM8.125 3.9585H11.875V3.12516C11.875 3.02571 11.8355 2.93032 11.7652 2.86C11.6948 2.78967 11.5995 2.75016 11.5 2.75016H8.5C8.40054 2.75016 8.30516 2.78967 8.23483 2.86C8.16451 2.93032 8.125 3.02571 8.125 3.12516V3.9585Z" fill="#EA2B2B"/>
<path d="M12.5 15.2087C12.3349 15.2065 12.1772 15.14 12.0604 15.0232C11.9437 14.9065 11.8772 14.7487 11.875 14.5837V7.91699C11.875 7.75123 11.9408 7.59226 12.0581 7.47505C12.1753 7.35784 12.3342 7.29199 12.5 7.29199C12.6658 7.29199 12.8247 7.35784 12.9419 7.47505C13.0592 7.59226 13.125 7.75123 13.125 7.91699V14.5837C13.1228 14.7487 13.0563 14.9065 12.9396 15.0232C12.8228 15.14 12.6651 15.2065 12.5 15.2087Z" fill="#EA2B2B"/>
<path d="M7.5 15.2087C7.33491 15.2065 7.17719 15.14 7.06045 15.0232C6.9437 14.9065 6.87716 14.7487 6.875 14.5837V7.91699C6.875 7.75123 6.94085 7.59226 7.05806 7.47505C7.17527 7.35784 7.33424 7.29199 7.5 7.29199C7.66576 7.29199 7.82473 7.35784 7.94194 7.47505C8.05915 7.59226 8.125 7.75123 8.125 7.91699V14.5837C8.12284 14.7487 8.0563 14.9065 7.93955 15.0232C7.82281 15.14 7.66509 15.2065 7.5 15.2087Z" fill="#EA2B2B"/>
<path d="M10 15.2087C9.83491 15.2065 9.67719 15.14 9.56044 15.0232C9.4437 14.9065 9.37716 14.7487 9.375 14.5837V7.91699C9.375 7.75123 9.44085 7.59226 9.55806 7.47505C9.67527 7.35784 9.83424 7.29199 10 7.29199C10.1658 7.29199 10.3247 7.35784 10.4419 7.47505C10.5591 7.59226 10.625 7.75123 10.625 7.91699V14.5837C10.6228 14.7487 10.5563 14.9065 10.4396 15.0232C10.3228 15.14 10.1651 15.2065 10 15.2087Z" fill="#EA2B2B"/>
</svg>
