<svg width="12" height="12" viewBox="0 0 12 12" fill="none" xmlns="http://www.w3.org/2000/svg">
<path d="M2.48438 0H3.89062V2.13281H2.48438V0Z" fill="white"/>
<path d="M8.10938 0H9.51562V2.13281H8.10938V0Z" fill="white"/>
<path d="M0 12H12V4.94531H0V12ZM8.46094 5.64844H9.86719V6.35156H8.46094V5.64844ZM8.46094 7.75781H9.86719V8.46094H8.46094V7.75781ZM8.46094 9.86719H9.86719V10.5703H8.46094V9.86719ZM5.29688 5.64844H6.70313V6.35156H5.29688V5.64844ZM5.29688 7.75781H6.70313V8.46094H5.29688V7.75781ZM5.29688 9.86719H6.70313V10.5703H5.29688V9.86719ZM2.13281 5.64844H3.53906V6.35156H2.13281V5.64844ZM2.13281 7.75781H3.53906V8.46094H2.13281V7.75781ZM2.13281 9.86719H3.53906V10.5703H2.13281V9.86719Z" fill="white"/>
<path d="M10.2188 1.42969V2.83594H7.40625V1.42969H4.59375V2.83594H1.78125V1.42969H0V4.24219H12V1.42969H10.2188Z" fill="white"/>
</svg>
