<svg width="16" height="16" viewBox="0 0 16 16" fill="none" xmlns="http://www.w3.org/2000/svg">
<circle cx="8" cy="8" r="8" fill="#ED2222"/>
<g clip-path="url(#clip0_315_112)">
<path d="M4.75836 11.9498C4.56222 11.9612 4.36933 11.896 4.22036 11.7679C3.92655 11.4723 3.92655 10.995 4.22036 10.6994L10.6538 4.266C10.9594 3.98005 11.4389 3.99595 11.7248 4.30153C11.9834 4.57787 11.9985 5.00261 11.7601 5.29657L5.28878 11.7679C5.14173 11.8941 4.95193 11.9592 4.75836 11.9498Z" fill="white"/>
<path d="M11.1842 11.9498C10.9854 11.9489 10.7949 11.87 10.6537 11.73L4.22029 5.29656C3.9481 4.9787 3.9851 4.50033 4.30297 4.22811C4.58667 3.98516 5.00507 3.98516 5.28875 4.22811L11.7601 10.6615C12.0656 10.9476 12.0814 11.4271 11.7954 11.7326C11.784 11.7448 11.7722 11.7565 11.7601 11.7679C11.6016 11.9057 11.3931 11.9715 11.1842 11.9498Z" fill="white"/>
</g>
<defs>
<clipPath id="clip0_315_112">
<rect width="8" height="8" fill="white" transform="translate(4 4)"/>
</clipPath>
</defs>
</svg>
