<svg width="20" height="20" viewBox="0 0 20 20" fill="none" xmlns="http://www.w3.org/2000/svg">
<path d="M16.5527 18.75H6.5918C5.3801 18.75 4.39453 17.7644 4.39453 16.5527V6.5918C4.39453 5.3801 5.3801 4.39453 6.5918 4.39453H16.5527C17.7644 4.39453 18.75 5.3801 18.75 6.5918V16.5527C18.75 17.7644 17.7644 18.75 16.5527 18.75ZM6.5918 5.85938C6.18793 5.85938 5.85938 6.18793 5.85938 6.5918V16.5527C5.85938 16.9566 6.18793 17.2852 6.5918 17.2852H16.5527C16.9566 17.2852 17.2852 16.9566 17.2852 16.5527V6.5918C17.2852 6.18793 16.9566 5.85938 16.5527 5.85938H6.5918ZM2.92969 12.8906H2.19727C1.7934 12.8906 1.46484 12.5621 1.46484 12.1582V2.19727C1.46484 1.7934 1.7934 1.46484 2.19727 1.46484H12.1582C12.5621 1.46484 12.8906 1.7934 12.8906 2.19727V2.89307H14.3555V2.19727C14.3555 0.985565 13.3699 0 12.1582 0H2.19727C0.985565 0 0 0.985565 0 2.19727V12.1582C0 13.3699 0.985565 14.3555 2.19727 14.3555H2.92969V12.8906Z" fill="#A1A1A1"/>
</svg>
