<svg width="8" height="8" viewBox="0 0 8 8" fill="none" xmlns="http://www.w3.org/2000/svg">
<path d="M5.31999 4.00025L7.7949 1.52534C8.06835 1.25189 8.06835 0.808561 7.7949 0.535537L7.46496 0.205601C7.19142 -0.0679355 6.74809 -0.0679355 6.47507 0.205601L4.00025 2.68042L1.52534 0.205088C1.25189 -0.0683628 0.808561 -0.0683628 0.535537 0.205088L0.205088 0.535024C-0.0683628 0.808561 -0.0683628 1.25189 0.205088 1.52492L2.68042 4.00025L0.205601 6.47507C-0.0679355 6.7486 -0.0679355 7.19194 0.205601 7.46496L0.535537 7.7949C0.808988 8.06835 1.25232 8.06835 1.52534 7.7949L4.00025 5.31999L6.47507 7.7949C6.7486 8.06835 7.19194 8.06835 7.46496 7.7949L7.7949 7.46496C8.06835 7.19142 8.06835 6.74809 7.7949 6.47507L5.31999 4.00025Z" fill="#DB1A1A"/>
</svg>
