<svg width="26" height="34" viewBox="0 0 26 34" fill="none" xmlns="http://www.w3.org/2000/svg">
<path d="M0.25 2.04C0.25 0.913215 1.16322 0 2.29001 0H17.25L25.75 7.13998V31.96C25.75 33.0868 24.8368 34 23.71 34H2.29001C1.16322 34 0.25 33.0868 0.25 31.96V2.04Z" fill="#42A5F5"/>
<path d="M17.25 0V5.09998C17.25 6.22677 18.1632 7.13999 19.29 7.13999H25.75" fill="#1E88E5"/>
<path d="M5.97752 24.0019H3.97949V16.6372H5.85002C7.74179 16.6372 9.54861 17.2429 9.54861 20.2831C9.54861 23.2783 7.81616 24.0019 5.97752 24.0019ZM6.10501 17.9122H5.74376V22.7269H6.10501C7.07192 22.7269 7.71999 22.2062 7.71999 20.2821C7.72055 18.317 7.02994 17.9122 6.10501 17.9122Z" fill="white"/>
<path d="M13.0012 24.1826C11.0669 24.1826 10.0464 22.7062 10.0464 20.3151C10.0464 17.977 11.0669 16.4465 13.0012 16.4465C14.9355 16.4465 15.9555 17.9239 15.9555 20.3151C15.9555 22.6521 14.9355 24.1826 13.0012 24.1826ZM13.0012 17.7316C12.1826 17.7316 11.8537 18.5077 11.8537 20.3145C11.8537 22.1202 12.1937 22.8964 13.0012 22.8964C13.8406 22.8964 14.1488 22.0995 14.1488 20.3145C14.1488 18.5078 13.8188 17.7316 13.0012 17.7316Z" fill="white"/>
<path d="M21.5012 18.2847C21.0975 17.9553 20.672 17.7529 20.1094 17.7529C19.1005 17.7529 18.377 18.5078 18.377 20.3039C18.377 22.0682 19.0575 22.822 20.0674 22.822C20.7894 22.822 21.2474 22.524 21.6612 22.2058L22.458 23.2257C21.9162 23.7464 21.1187 24.1825 19.95 24.1825C17.9207 24.1825 16.5383 22.8326 16.5383 20.3033C16.5383 17.8372 18.0157 16.4453 19.9819 16.4453C21.0444 16.4453 21.7451 16.7646 22.3614 17.264L21.5012 18.2847Z" fill="white"/>
</svg>
