<svg width="13" height="13" viewBox="0 0 13 13" fill="none" xmlns="http://www.w3.org/2000/svg">
<path d="M6.49996 0.541672C5.32151 0.541672 4.16953 0.891122 3.18969 1.54583C2.20985 2.20054 1.44615 3.13111 0.99518 4.21985C0.544208 5.3086 0.426213 6.50662 0.656116 7.66243C0.88602 8.81823 1.4535 9.87991 2.28678 10.7132C3.12007 11.5465 4.18175 12.114 5.33755 12.3439C6.49335 12.5738 7.69137 12.4558 8.78012 12.0048C9.86886 11.5538 10.7994 10.7901 11.4541 9.81029C12.1088 8.83045 12.4583 7.67846 12.4583 6.50001C12.4564 4.92033 11.8281 3.40589 10.7111 2.28889C9.59408 1.17189 8.07964 0.543535 6.49996 0.541672ZM6.49996 11.375C5.53578 11.375 4.59325 11.0891 3.79156 10.5534C2.98987 10.0178 2.36503 9.25639 1.99605 8.3656C1.62707 7.47481 1.53053 6.49461 1.71863 5.54895C1.90674 4.60329 2.37104 3.73464 3.05282 3.05286C3.7346 2.37108 4.60324 1.90678 5.5489 1.71868C6.49455 1.53058 7.47475 1.62712 8.36554 1.99609C9.25633 2.36507 10.0177 2.98991 10.5534 3.7916C11.089 4.5933 11.375 5.53583 11.375 6.50001C11.3734 7.79246 10.8593 9.03152 9.94537 9.94542C9.03147 10.8593 7.79241 11.3734 6.49996 11.375Z" fill="#5971E9"/>
<path d="M6.49992 4.875C6.35626 4.875 6.21848 4.93207 6.1169 5.03365C6.01532 5.13523 5.95825 5.27301 5.95825 5.41667V9.20833C5.95825 9.35199 6.01532 9.48977 6.1169 9.59135C6.21848 9.69293 6.35626 9.75 6.49992 9.75C6.64357 9.75 6.78135 9.69293 6.88293 9.59135C6.98451 9.48977 7.04158 9.35199 7.04158 9.20833V5.41667C7.04158 5.27301 6.98451 5.13523 6.88293 5.03365C6.78135 4.93207 6.64357 4.875 6.49992 4.875Z" fill="#5971E9"/>
<path d="M6.49992 4.33333C6.79907 4.33333 7.04158 4.09082 7.04158 3.79166C7.04158 3.49251 6.79907 3.25 6.49992 3.25C6.20076 3.25 5.95825 3.49251 5.95825 3.79166C5.95825 4.09082 6.20076 4.33333 6.49992 4.33333Z" fill="#5971E9"/>
</svg>
