<svg width="14" height="14" viewBox="0 0 14 14" fill="none" xmlns="http://www.w3.org/2000/svg">
<path d="M6.875 7.50001C7.22019 7.50001 7.50001 7.22019 7.50001 6.875C7.50001 6.52982 7.22019 6.25 6.875 6.25C6.52982 6.25 6.25 6.52982 6.25 6.875C6.25 7.22019 6.52982 7.50001 6.875 7.50001Z" fill="#9296A0"/>
<path d="M9.99952 7.50001C10.3447 7.50001 10.6245 7.22019 10.6245 6.875C10.6245 6.52982 10.3447 6.25 9.99952 6.25C9.65434 6.25 9.37451 6.52982 9.37451 6.875C9.37451 7.22019 9.65434 7.50001 9.99952 7.50001Z" fill="#9296A0"/>
<path d="M3.75049 7.50001C4.09566 7.50001 4.37549 7.22019 4.37549 6.875C4.37549 6.52982 4.09566 6.25 3.75049 6.25C3.40531 6.25 3.12549 6.52982 3.12549 6.875C3.12549 7.22019 3.40531 7.50001 3.75049 7.50001Z" fill="#9296A0"/>
<path d="M6.87502 3.52375e-06C5.66151 -0.00122555 4.46935 0.319089 3.41987 0.928343C2.3704 1.5376 1.50108 2.41404 0.900407 3.46845C0.299736 4.52286 -0.0108409 5.7176 0.000288952 6.93105C0.0114188 8.14451 0.343858 9.33335 0.963769 10.3766L0.629894 13.0475C0.618978 13.1354 0.626864 13.2247 0.653032 13.3093C0.679199 13.3939 0.723049 13.4721 0.781679 13.5385C0.840308 13.6049 0.91238 13.6581 0.99312 13.6946C1.07386 13.731 1.16143 13.7499 1.25002 13.75C1.30117 13.7501 1.35213 13.7438 1.40171 13.7313L3.95202 13.0938C4.8653 13.5275 5.86397 13.7517 6.87502 13.75C8.69838 13.75 10.4471 13.0257 11.7364 11.7364C13.0257 10.4471 13.75 8.69837 13.75 6.875C13.75 5.05164 13.0257 3.30296 11.7364 2.01364C10.4471 0.724332 8.69838 3.52375e-06 6.87502 3.52375e-06ZM6.87502 12.5C5.98186 12.5011 5.10158 12.2869 4.30877 11.8756C4.22027 11.8303 4.12225 11.8067 4.02283 11.8069C3.97168 11.8068 3.92072 11.8131 3.87114 11.8256L1.98364 12.2974L2.23127 10.3131C2.24952 10.1683 2.21634 10.0216 2.13752 9.89869C1.46703 8.84604 1.16592 7.60019 1.28166 6.35751C1.39741 5.11484 1.92342 3.94602 2.77678 3.03531C3.63014 2.12459 4.76232 1.52376 5.99484 1.32754C7.22737 1.13132 8.49016 1.35086 9.58414 1.95155C10.6781 2.55224 11.5411 3.49993 12.037 4.64523C12.5329 5.79052 12.6336 7.06829 12.3231 8.27711C12.0127 9.48593 11.3087 10.5571 10.3223 11.3216C9.3359 12.0862 8.12307 12.5008 6.87502 12.5Z" fill="#9296A0"/>
</svg>
