<svg width="10" height="10" viewBox="0 0 10 10" fill="none" xmlns="http://www.w3.org/2000/svg">
<g clip-path="url(#clip0_236_236)">
<path d="M6.17554 1.67969L0.673399 7.18223C0.645717 7.20999 0.62573 7.24505 0.616212 7.28272L0.00635232 9.73057C-0.0118903 9.80425 0.00976291 9.88262 0.063539 9.93639C0.104228 9.97708 0.15967 9.99961 0.216381 9.99961C0.233751 9.99961 0.251518 9.99747 0.268808 9.9931L2.71665 9.38316C2.7548 9.37365 2.78947 9.35374 2.81715 9.32606L8.31976 3.82391L6.17554 1.67969Z" fill="#2E49D1"/>
<path d="M9.68298 0.929595L9.0705 0.317117C8.66115 -0.0922322 7.9477 -0.0918356 7.53883 0.317117L6.78857 1.06737L8.93273 3.21151L9.68298 2.46126C9.88745 2.25687 10.0001 1.98481 10.0001 1.69547C10.0001 1.40612 9.88745 1.13407 9.68298 0.929595Z" fill="#2E49D1"/>
</g>
<defs>
<clipPath id="clip0_236_236">
<rect width="10" height="10" fill="white"/>
</clipPath>
</defs>
</svg>
