<svg width="16" height="16" viewBox="0 0 16 16" fill="none" xmlns="http://www.w3.org/2000/svg">
<path d="M1.92175 8.73779C1.89087 8.48047 1.875 8.22485 1.875 8C1.875 4.64368 4.64368 1.875 8 1.875C9.56555 1.875 11.0312 2.50623 12.1094 3.4906L11.5687 4.04065C11.4469 4.16248 11.4 4.34058 11.4469 4.5094C11.5032 4.6687 11.6344 4.79065 11.8031 4.82812C11.8975 4.84705 14.9973 5.84595 14.7999 5.80627C15.051 5.88989 15.4224 5.62207 15.3531 5.25317C15.3341 5.15869 14.6478 1.71521 14.6875 1.91248C14.65 1.74377 14.5281 1.60315 14.3594 1.55627C14.2001 1.5094 14.0219 1.55627 13.9 1.6781L13.4407 2.12805C12.025 0.806274 10.0812 0 8 0C3.60315 0 0 3.60315 0 8V8.01868C0 8.28296 0.012085 8.48718 0.0261231 8.64343C0.0447998 8.85046 0.197388 9.02002 0.401245 9.06091L1.36426 9.25342C1.67773 9.31616 1.95959 9.05334 1.92175 8.73779Z" fill="#5465DB"/>
<path d="M15.6013 6.93886L14.6355 6.74208C14.3217 6.67811 14.0379 6.94117 14.0764 7.25819C14.1099 7.53175 14.1248 7.79774 14.1248 8.0005C14.1248 11.3567 11.3561 14.1255 7.99977 14.1255C6.43422 14.1255 4.96852 13.4943 3.8904 12.5005L4.43105 11.9599C4.55287 11.838 4.59975 11.6599 4.55287 11.4911C4.4966 11.3317 4.36537 11.2099 4.19667 11.1724C4.10231 11.1533 1.00246 10.1546 1.19984 10.1942C1.04042 10.1661 0.880997 10.213 0.777969 10.3255C0.665421 10.4286 0.618546 10.5973 0.646622 10.7473C0.665665 10.8417 1.35207 14.2539 1.31239 14.0567C1.34975 14.2255 1.4717 14.3661 1.6404 14.4129C1.83607 14.4619 1.99941 14.4026 2.09975 14.291L2.54982 13.8411C3.96535 15.163 5.90919 16.0005 7.99977 16.0005C12.3966 16.0005 15.9998 12.3974 15.9998 8.0005V7.9723C15.9998 7.76454 15.9922 7.56056 15.9749 7.3578C15.957 7.15065 15.8051 6.98048 15.6013 6.93886Z" fill="#5465DB"/>
</svg>
