<svg width="16" height="16" viewBox="0 0 16 16" fill="none" xmlns="http://www.w3.org/2000/svg">
<path d="M1.92175 8.73779C1.89087 8.48047 1.875 8.22485 1.875 8C1.875 4.64368 4.64368 1.875 8 1.875C9.56555 1.875 11.0312 2.50623 12.1094 3.4906L11.5687 4.04065C11.4469 4.16248 11.4 4.34058 11.4469 4.5094C11.5032 4.6687 11.6344 4.79065 11.8031 4.82812C11.8975 4.84705 14.9973 5.84595 14.7999 5.80627C15.051 5.88989 15.4224 5.62207 15.3531 5.25317C15.3341 5.15869 14.6478 1.71521 14.6875 1.91248C14.65 1.74377 14.5281 1.60315 14.3594 1.55627C14.2001 1.5094 14.0219 1.55627 13.9 1.6781L13.4407 2.12805C12.025 0.806274 10.0812 0 8 0C3.60315 0 0 3.60315 0 8V8.01868C0 8.28296 0.012085 8.48718 0.0261231 8.64343C0.0447998 8.85046 0.197388 9.02002 0.401245 9.06091L1.36426 9.25342C1.67773 9.31616 1.95959 9.05334 1.92175 8.73779Z" fill="#BEBEBE"/>
<path d="M15.6016 6.93837L14.6358 6.74159C14.3219 6.67762 14.0381 6.94069 14.0767 7.2577C14.1101 7.53126 14.125 7.79725 14.125 8.00001C14.125 11.3562 11.3563 14.125 8.00002 14.125C6.43446 14.125 4.96877 13.4938 3.89064 12.5L4.43129 11.9594C4.55312 11.8375 4.59999 11.6594 4.55312 11.4906C4.49684 11.3312 4.36562 11.2094 4.19691 11.1719C4.10255 11.1528 1.0027 10.1541 1.20009 10.1937C1.04066 10.1657 0.881241 10.2125 0.778214 10.325C0.665665 10.4281 0.61879 10.5968 0.646866 10.7468C0.665909 10.8412 1.35231 14.2534 1.31264 14.0562C1.34999 14.225 1.47194 14.3656 1.64064 14.4124C1.83632 14.4614 1.99965 14.4021 2.09999 14.2905L2.55006 13.8406C3.96559 15.1625 5.90944 16 8.00002 16C12.3969 16 16 12.3969 16 8.00001V7.97181C16 7.76405 15.9924 7.56007 15.9751 7.35731C15.9573 7.15016 15.8053 6.97999 15.6016 6.93837Z" fill="#BEBEBE"/>
</svg>
